# Blender 4.5.1 LTS
# www.blender.org
mtllib SlashReduced.mtl
o Cylinder
v 0.382683 0.923880 -0.000000
v 0.555570 0.831470 -0.000000
v 0.707107 0.707107 -0.000000
v 0.831470 0.555570 -0.000000
v 0.923880 0.382683 -0.000000
v 0.980785 0.195090 -0.000000
v 1.000000 0.000000 0.000000
v 0.636518 1.536690 -0.000000
v 0.924080 1.382984 -0.000000
v 1.176131 1.176131 -0.000000
v 1.382984 0.924080 -0.000000
v 1.536690 0.636518 -0.000000
v 1.631341 0.324494 -0.000000
v 1.663301 0.000000 0.000000
vn -0.0000 -0.0000 1.0000
vt -0.000795 1.000000
vt -0.000795 0.000000
vt 0.165633 0.000000
vt 0.165633 1.000000
vt 0.332062 0.000000
vt 0.332062 1.000000
vt 0.498490 0.000000
vt 0.498490 1.000000
vt 0.664918 0.000000
vt 0.664918 1.000000
vt 0.831346 0.000000
vt 0.831346 1.000000
vt 0.997774 0.000000
vt 0.997774 1.000000
s 1
f 8/1/1 1/2/1 2/3/1 9/4/1
f 9/4/1 2/3/1 3/5/1 10/6/1
f 10/6/1 3/5/1 4/7/1 11/8/1
f 11/8/1 4/7/1 5/9/1 12/10/1
f 12/10/1 5/9/1 6/11/1 13/12/1
f 13/12/1 6/11/1 7/13/1 14/14/1
