# Blender 5.0.1
# www.blender.org
mtllib Slash.mtl
o Cylinder
v 0.000000 1.000000 0.000000
v 0.195090 0.980785 0.000000
v 0.382683 0.923880 0.000000
v 0.555570 0.831470 0.000000
v 0.707107 0.707107 0.000000
v 0.831470 0.555570 0.000000
v 0.923880 0.382683 0.000000
v 0.980785 0.195090 0.000000
v 1.000000 0.000000 0.000000
v -0.923880 -0.382683 -0.000000
v -0.980785 -0.195090 -0.000000
v -1.000000 0.000000 0.000000
v -0.980785 0.195090 0.000000
v -0.923880 0.382683 0.000000
v -0.831470 0.555570 0.000000
v -0.707107 0.707107 0.000000
v -0.555570 0.831470 0.000000
v -0.382683 0.923880 0.000000
v -0.195090 0.980785 0.000000
v -0.000000 1.663301 0.000000
v 0.324494 1.631341 0.000000
v 0.636518 1.536690 0.000000
v 0.924080 1.382984 0.000000
v 1.176131 1.176131 0.000000
v 1.382984 0.924080 0.000000
v 1.536690 0.636518 0.000000
v 1.631341 0.324494 0.000000
v 1.663301 -0.000000 -0.000000
v -1.536690 -0.636518 -0.000000
v -1.631341 -0.324494 -0.000000
v -1.663301 -0.000000 -0.000000
v -1.631341 0.324494 0.000000
v -1.536690 0.636518 0.000000
v -1.382984 0.924080 0.000000
v -1.176131 1.176131 0.000000
v -0.924080 1.382984 0.000000
v -0.636518 1.536690 0.000000
v -0.324494 1.631341 0.000000
vn -0.0000 -0.0000 1.0000
vt 0.555556 1.000000
vt 0.555556 0.000000
vt 0.611111 0.000000
vt 0.611111 1.000000
vt 0.666667 0.000000
vt 0.666667 1.000000
vt 0.722222 0.000000
vt 0.722222 1.000000
vt 0.777778 0.000000
vt 0.777778 1.000000
vt 0.833333 0.000000
vt 0.833333 1.000000
vt 0.888889 0.000000
vt 0.888889 1.000000
vt 0.944444 0.000000
vt 0.944444 1.000000
vt 1.000000 0.000000
vt 1.000000 1.000000
vt 0.000000 1.000000
vt 0.000000 0.000000
vt 0.055556 0.000000
vt 0.055556 1.000000
vt 0.111111 0.000000
vt 0.111111 1.000000
vt 0.166667 0.000000
vt 0.166667 1.000000
vt 0.222222 0.000000
vt 0.222222 1.000000
vt 0.277778 0.000000
vt 0.277778 1.000000
vt 0.333333 0.000000
vt 0.333333 1.000000
vt 0.388889 0.000000
vt 0.388889 1.000000
vt 0.444445 0.000000
vt 0.444445 1.000000
vt 0.500000 0.000000
vt 0.500000 1.000000
s 0
f 20/1/1 1/2/1 2/3/1 21/4/1
f 21/4/1 2/3/1 3/5/1 22/6/1
f 22/6/1 3/5/1 4/7/1 23/8/1
f 23/8/1 4/7/1 5/9/1 24/10/1
f 24/10/1 5/9/1 6/11/1 25/12/1
f 25/12/1 6/11/1 7/13/1 26/14/1
f 26/14/1 7/13/1 8/15/1 27/16/1
f 27/16/1 8/15/1 9/17/1 28/18/1
f 29/19/1 10/20/1 11/21/1 30/22/1
f 30/22/1 11/21/1 12/23/1 31/24/1
f 31/24/1 12/23/1 13/25/1 32/26/1
f 32/26/1 13/25/1 14/27/1 33/28/1
f 33/28/1 14/27/1 15/29/1 34/30/1
f 34/30/1 15/29/1 16/31/1 35/32/1
f 35/32/1 16/31/1 17/33/1 36/34/1
f 36/34/1 17/33/1 18/35/1 37/36/1
f 37/36/1 18/35/1 19/37/1 38/38/1
f 38/38/1 19/37/1 1/2/1 20/1/1
